<svg id="Layer_1" data-name="Layer 1" xmlns="http://www.w3.org/2000/svg" viewBox="0 0 512 512"><title>recycle_bin</title><path d="M175.08,169.88s-4.81-1.3,3.32-1.21l6.48-.54,4.76-1.3,4.75.39s1.36,3.42,4.07,41.32a225.36,225.36,0,0,1,2.69,35.61s-1.4,148.3-4.24,159.42c0,0,4.07-93,2.78-98.85,0,0-3.35,88.92-5.92,95.77,0,0,3.82-86.28.52-94,0,0-3.53,79.39-6.82,89,0,0,1.31-15.23.91-19.29l-1,7.1.14-11.44.77-6.61s-2.27,17.91-3.43,19.15c0,0,1.4,8.16.87-24.14C185.74,360.32,193.72,283.92,175.08,169.88Z" fill="#231f20"/><path d="M435,40.76s-5-.61,3.43-.57l6.73-.25,4.95-.61,4.93.17s1.41,1.62,4.23,19.37a49.89,49.89,0,0,1,2.81,16.7s-1.45,69.5-4.43,74.71c0,0,4.24-43.59,2.89-46.34,0,0-3.48,41.69-6.16,44.89,0,0,4-40.43.55-44,0,0-3.67,37.2-7.1,41.71,0,0,1.38-7.15,1-9.06l-1,3.33.13-5.35.81-3.1s-2.37,8.38-3.57,9c0,0,1.45,3.84.91-11.31C446.08,130,454.36,94.22,435,40.76Z" fill="#231f20"/><path d="M72.26,49.35s4.83-.59-3.3-.56l-6.5-.24L57.72,48,53,48.15s-1.35,1.53-4.06,18.63a48,48,0,0,0-2.69,16.06s1.38,66.89,4.24,71.92c0,0-4.07-42-2.78-44.6,0,0,3.35,40.11,5.92,43.21,0,0-3.82-38.91-.54-42.38,0,0,3.53,35.82,6.83,40.16,0,0-1.31-6.88-.91-8.72l1,3.21-.13-5.17-.77-3s2.27,8.08,3.42,8.63c0,0-1.38,3.69-.86-10.89C61.63,135.24,53.65,100.8,72.26,49.35Z" fill="#231f20"/><path d="M243.84,169.88s-4.81-1.3,3.3-1.21l6.5-.54,4.76-1.3,4.75.39s1.35,3.42,4.06,41.32a224,224,0,0,1,2.71,35.61s-1.41,148.3-4.26,159.42c0,0,4.07-93,2.78-98.85,0,0-3.33,88.92-5.92,95.77,0,0,3.84-86.28.52-94,0,0-3.52,79.39-6.82,89,0,0,1.33-15.23.91-19.29l-1,7.1.15-11.44.76-6.61s-2.27,17.91-3.42,19.15c0,0,1.38,8.16.86-24.14C254.48,360.32,262.45,283.92,243.84,169.88Z" fill="#231f20"/><path d="M315.72,169.88s-4.85-1.3,3.28-1.21l6.51-.54,4.75-1.3,4.75.39s1.35,3.42,4.06,41.32a224,224,0,0,1,2.71,35.61s-1.4,148.3-4.24,159.42c0,0,4.07-93,2.78-98.85,0,0-3.33,88.92-5.94,95.77,0,0,3.84-86.28.54-94,0,0-3.53,79.39-6.83,89,0,0,1.35-15.23.93-19.29l-1,7.1.13-11.44.76-6.61s-2.26,17.91-3.4,19.15c0,0,1.36,8.16.86-24.14C326.36,360.32,334.32,283.92,315.72,169.88Z" fill="#231f20"/><path d="M60.52,156.44S58.28,163,58.43,152l-.93-8.82-2.26-6.46.67-6.38s5.92-1.85,71.63-5.52a495.07,495.07,0,0,1,61.75-3.67s257.14,1.88,276.48,5.76c0,0-161.26-5.52-171.41-3.75,0,0,154.19,4.51,166,8,0,0-149.59-5.18-162.91-.71,0,0,137.7,4.76,154.34,9.22,0,0-26.42-1.78-33.46-1.21l12.32,1.33-19.86-.19-11.41-1s31,3.08,33.19,4.63c0,0,14.14-1.87-41.87-1.18C390.76,142,258.3,131.23,60.52,156.44Z" fill="#231f20"/><path d="M103.18,509.16s-1.94,9.64-1.8-6.58l-.79-13-1.94-9.53.57-9.46s5.08-2.71,61.72-8.11c0,0,22.64-5.42,53.2-5.42,0,0,221.58,2.79,238.23,8.52,0,0-138.92-8.16-147.68-5.55,0,0,132.85,6.66,143.06,11.83,0,0-128.88-7.64-140.35-1,0,0,118.62,7,133,13.63,0,0-22.77-2.64-28.85-1.83l10.62,2-17.1-.29-9.86-1.5s26.74,4.49,28.6,6.82c0,0,12.2-2.78-36.05-1.73C387.74,487.9,273.61,472,103.18,509.16Z" fill="#231f20"/><path d="M60.82,91.51s-2.26,11.18-2.1-7.62l-.89-15-2.26-11,.66-11s5.91-3.16,71.52-9.41c0,0,26.24-6.26,61.69-6.26,0,0,256.77,3.21,276,9.85,0,0-161-9.46-171.14-6.46,0,0,154,7.74,165.79,13.73,0,0-149.34-8.85-162.64-1.21,0,0,137.48,8.16,154.1,15.77,0,0-26.37-3-33.43-2.1l12.3,2.31-19.81-.34L399.22,61s31,5.23,33.14,7.89c0,0,14.12-3.18-41.79-2C390.57,66.87,258.31,48.41,60.82,91.51Z" fill="#231f20"/><path d="M225.44,52.58s3.35.27-2.29.25l-4.53.12-3.3.27-3.27-.08s-1-.71-2.83-8.65A15.91,15.91,0,0,1,207.35,37s1-31,2.94-33.34c0,0-2.83,19.44-1.94,20.67,0,0,2.34-18.6,4.12-20,0,0-2.66,18-.37,19.64,0,0,2.46-16.61,4.73-18.61,0,0-.89,3.18-.62,4l.69-1.48-.1,2.39-.52,1.38s1.56-3.74,2.36-4c0,0-1-1.72-.59,5C218.05,12.74,212.52,28.71,225.44,52.58Z" fill="#231f20"/><path d="M217.79,19.27s-.45,3.57-.42-2.44l-.2-4.81-.44-3.52.12-3.5s1.2-1,14.49-3a38.82,38.82,0,0,1,12.47-2s52,1,55.88,3.13c0,0-32.59-3-34.64-2.05,0,0,31.17,2.49,33.56,4.38,0,0-30.23-2.83-32.92-.37,0,0,27.84,2.61,31.19,5,0,0-5.34-1-6.77-.66l2.49.71-4-.08-2.32-.57S292.55,11.18,293,12c0,0,2.84-1-8.47-.64C284.54,11.39,257.76,5.49,217.79,19.27Z" fill="#231f20"/><path d="M304,49.16s3.35.2-2.27.19l-4.51.07-3.32.2-3.3-.07s-.93-.49-2.81-6.16a9.17,9.17,0,0,1-1.88-5.32s1-22.15,3-23.82c0,0-2.83,13.89-1.94,14.76,0,0,2.32-13.3,4.11-14.31,0,0-2.66,12.89-.35,14,0,0,2.46-11.87,4.73-13.3,0,0-.91,2.27-.64,2.88l.71-1.06L295.36,19l-.52,1s1.56-2.68,2.37-2.86c0,0-1-1.21-.61,3.62C296.61,20.72,291.08,32.11,304,49.16Z" fill="#231f20"/><path d="M93.66,233.7s2.37-50.12,5.59-94H92C90.83,181.19,90.39,226.6,93.66,233.7Z" fill="none"/><path d="M86.62,169.39c.49-9.76,1-19.79,1.6-29.64H86.34Z" fill="none"/><path d="M129.59,474.2c-33.56-193.1-21-324.77-20-334.45H99.24c-3.21,43.83-5.59,94-5.59,94-3.27-7.1-2.83-52.51-1.67-94H88.22c-.55,9.85-1.11,19.88-1.6,29.64L89.31,447.2c2.76,28.31,4.12,31.66,4.12,31.66l8.89.66,8.94-2.27,12.17-.93C138.65,476.45,129.59,474.2,129.59,474.2Z"/><path d="M78.59,320.93c0,.13,0,.27,0,.42,0-.71,0-1.45,0-2.15C78.61,320.29,78.59,320.93,78.59,320.93Z"/><path d="M407.12,224.56s1.65-41.32,3.92-83.11h-2.51C407.05,181.07,406,219.71,407.12,224.56Z" fill="none"/><path d="M415.23,141.45c-.84,37.1-.88,73.6,2,79.91,0,0,1.89-40.09,4.59-79.91h-6.63Z" fill="none"/><path d="M404.36,331.17c0,36,5.07,62.68,5.07,62.68,5.08,66.67,7.62,72.66,7.62,72.66l8.87.67,2.47-.64c-3.15-26.93-9.44-85.23-9.11-116.45,0,0-1-103.86.5-117.68l9.71,233.85,5.37-1.35L447,464c15.2.13,6.14-2.14,6.14-2.14C425.06,300,429.33,181.34,432,141.45H421.86c-2.71,39.82-4.59,79.91-4.59,79.91-2.91-6.31-2.88-42.82-2-79.91H411c-2.27,41.79-3.92,83.11-3.92,83.11-1.14-4.85-.07-43.49,1.41-83.11h-.89"/><path d="M419.79,232.4c-1.48,13.82-.5,117.68-.5,117.68-.34,31.22,6,89.52,9.11,116.45,1,8.85,1.72,14.32,1.72,14.32l-.61-14.61"/><rect x="216.22" y="9.41" width="74.33" height="26.29" fill="#231f20"/></svg>